<svg xmlns="http://www.w3.org/2000/svg" preserveAspectRatio="xMidYMid" width="27.5" height="40" xmlns:v="https://vecta.io/nano"><path d="M21.21 28.847C18.706 35.832 19.062 40 13.75 40c-5.234 0-4.957-4.186-7.46-11.182C4.61 24.128 0 18.788 0 13.748 0 6.155 6.156-.002 13.75-.002S27.5 6.155 27.5 13.748c0 5-4.604 10.398-6.29 15.1zM13.75 37.5c1.476 0 2.035-.158 2.8-2.225l-5.297.663c.647 1.416 1.23 1.562 2.496 1.562zm-3.705-5.123c.288.977.526 1.727.747 2.368l6.2-.776.45-1.492.33-1.105-7.736.966c.003.013.007.028.01.04zm-.375-1.242l8.5-1.062c.133-.424.287-.874.44-1.323H8.9a71.75 71.75 0 0 1 .769 2.385zM13.75 2.5C7.546 2.5 2.5 7.545 2.5 13.748c0 2.542 1.686 5.56 3.317 8.48.737 1.32 1.484 2.67 2.107 4.02H19.6c.62-1.343 1.36-2.69 2.09-4.006C23.313 19.307 25 16.27 25 13.748 25 7.545 19.954 2.5 13.75 2.5zm0 5a6.26 6.26 0 0 0-6.25 6.249c0 .347-.28.626-.625.626s-.625-.28-.625-.626a7.51 7.51 0 0 1 7.5-7.499c.345 0 .625.28.625.625s-.28.625-.625.625z" fill="#0d0d0d" fill-rule="evenodd"/></svg>