<svg xmlns="http://www.w3.org/2000/svg" preserveAspectRatio="xMidYMid" width="32" height="32"><path d="M30 13.976V29c0 1.655-1.346 3-3 3s-3-1.345-3-3V13.976c-1.208-.912-2-2.346-2-3.976s.792-3.066 2-3.98V3c0-1.655 1.346-3 3-3s3 1.345 3 3v3.02c1.208.913 2 2.348 2 3.98s-.792 3.064-2 3.976zM26 29a1 1 0 102 0V14.897c-.323.068-.657.102-1 .102s-.677-.034-1-.102V29zm2-26a1 1 0 10-2 0v2.1a5.06 5.06 0 012 0V3zm1.865 6.158L29.816 9a3.024 3.024 0 00-.377-.738c-.004-.006-.01-.01-.014-.015a3.001 3.001 0 00-1.426-1.065 2.97 2.97 0 00-1-.184c-.353 0-.686.072-1 .184-.29.104-.558.25-.8.43a3.06 3.06 0 00-.626.635l-.014.015a2.99 2.99 0 00-.377.738c-.02.05-.034.103-.05.157A2.92 2.92 0 0024 10c0 .293.055.57.135.838l.05.16c.094.264.216.514.377.736l.014.016a2.98 2.98 0 00.616.627 3 3 0 00.809.438c.314.113.647.185 1 .185s.685-.072 1-.185a2.99 2.99 0 00.799-.43 3.01 3.01 0 00.626-.635l.014-.016a2.94 2.94 0 00.377-.736c.02-.052.034-.105.05-.16.08-.267.135-.545.135-.838a2.92 2.92 0 00-.135-.842zM19 25.976V29c0 1.655-1.346 3-3 3s-3-1.345-3-3v-3.023A4.97 4.97 0 0111 22c0-1.63.792-3.066 2-3.98V3c0-1.655 1.346-3 3-3s3 1.345 3 3v15.02c1.208.913 2 2.348 2 3.98a4.97 4.97 0 01-2 3.976zM15 29a1 1 0 102 0v-2.1a4.99 4.99 0 01-2 0V29zm2-26a1 1 0 10-2 0v14.1a5.14 5.14 0 011-.1 5.14 5.14 0 011 .1V3zm1.865 18.157l-.05-.156a2.99 2.99 0 00-.377-.738c-.004-.006-.01-.01-.014-.015a3.001 3.001 0 00-.616-.627 3.07 3.07 0 00-.809-.438 2.99 2.99 0 00-1-.184 2.99 2.99 0 00-1 .184c-.29.103-.558.25-.8.43a3.06 3.06 0 00-.626.635l-.014.015a2.99 2.99 0 00-.377.738c-.02.05-.034.104-.05.156-.08.268-.135.547-.135.843s.055.57.135.84l.05.158c.094.265.216.514.377.737l.014.015a3 3 0 00.616.627c.25.2.52.336.81.437a2.92 2.92 0 001 .186 2.92 2.92 0 001-.186 3.013 3.013 0 001.426-1.065l.014-.015c.16-.223.283-.472.377-.737l.05-.158c.08-.268.135-.547.135-.84s-.055-.575-.135-.843zM8 13.976V29c0 1.655-1.346 3-3 3s-3-1.345-3-3V13.976C.792 13.064 0 11.63 0 10s.792-3.066 2-3.98V3c0-1.655 1.346-3 3-3s3 1.345 3 3v3.02c1.208.913 2 2.348 2 3.98s-.792 3.064-2 3.976zM4 29a1 1 0 102 0V14.897c-.323.068-.657.102-1 .102s-.677-.034-1-.102V29zM6 3a1 1 0 10-2 0v2.1a5.06 5.06 0 012 0V3zm1.865 6.158L7.816 9a2.96 2.96 0 00-.378-.738 3.12 3.12 0 00-.629-.642c-.25-.19-.52-.334-.81-.438a2.97 2.97 0 00-1-.184c-.352 0-.686.072-1 .184-.29.104-.558.25-.8.43a3.06 3.06 0 00-.626.635l-.014.015A2.99 2.99 0 002.182 9c-.02.05-.034.103-.05.157A2.92 2.92 0 002 10c0 .293.055.57.135.838l.05.16c.094.264.216.514.377.736l.014.016a2.98 2.98 0 00.616.627 3 3 0 00.809.438c.314.113.648.185 1 .185s.685-.072 1-.185a2.99 2.99 0 00.799-.43 3.01 3.01 0 00.626-.635c.004-.006.01-.01.013-.016a2.88 2.88 0 00.378-.736c.02-.052.034-.105.05-.16.08-.267.135-.545.135-.838a2.92 2.92 0 00-.135-.842z" fill="#0d0d0d" fill-rule="evenodd"/></svg>